<?xml version="1.0" encoding="UTF-8"?>
<svg xmlns="http://www.w3.org/2000/svg" version="1.1" viewBox="0 0 252.8 294">
  <title>Foxleigh and Foxleigh Logo</title>
  <g>
    <g id="b">
      <g id="c">
        <g>
          <path d="M97.3,293.5c-18.9-.5-40.5-6.5-59.2-20.4C16.5,257,3.7,235.4,1,208.2c-1.7-16.9.6-33.2,8.2-48.5,5.4-10.9,13.2-19.9,22.2-27.9,1.5-1.4,2.1-.6,2.7.8,4.6,10.3,10.5,19.7,18,28.2,1.2,1.3,2.3,2.8,3.7,3.9,1.4,1.1,1.3,2.1.3,3.4-10.2,14.8-10.9,43.3,7.1,60.2,10.6,10,23.3,13.8,37.6,12.9,6.6-.4,12.9-2,18.8-4.9,1.5-.8,2.4-.5,3.3.9,7.4,10.8,15.4,21.1,25.1,29.9,2.9,2.6,5.9,5.2,9.1,7.4,2.1,1.5,1.3,2.2-.2,3.2-4.8,3.2-9.9,5.9-15.3,8.1-13.4,5.4-25.3,7.7-44.4,7.8h0Z" fill="#f86b1c" stroke="#a0a0a0" stroke-miterlimit="10"/>
          <path d="M156.3,94.4c1.8,2.2,3,5,6.5,5.7-4.3,5.4-10,6.7-16.1,7-4.4.2-8.6-.9-12.7-2.2-5.6-1.8-11.2-3.9-17.1-5-4.4-.8-8.8-.8-13.1.7-6.5,2.2-10.6,7.5-10.9,14.4-.5,8.6,2.4,16.4,6.3,23.8,10.5,20.1,22.8,39.2,35.6,58,8.4,12.3,16.6,24.8,26.2,36.2,8.5,10.1,17.7,19.4,29,26.4,14.6,9,30.3,12.8,47.4,9.9.3,0,.7,0,1.2,0-.6,1.6-1.9,2.2-3.1,2.9-10.2,6.3-21.6,8.4-33.4,8-16-.6-29.9-6.7-42.4-16.5-11.2-8.8-19.6-20-28-31.3-10.2-13.9-19.3-28.5-29.1-42.6-.9-1.2-1.8-2.4-2.8-3.6-.1-1-.8-1.7-1.3-2.4-8.6-13.6-17.5-27.1-24.6-41.6-4.2-8.7-8.2-17.6-9.3-27.3-.9-7.2-1.4-14.6,1.3-21.4,3.8-9.9,11.4-16.4,21.6-19.2,9.4-2.5,18.6-1.1,27.7,2.4,11.1,4.2,21.4,10.3,32.2,15.1,2.8,1.2,5.6,2.9,8.8,2.8h0Z" fill="#fcfcfb" stroke="#a0a0a0" stroke-miterlimit="10"/>
          <path d="M156.3,94.4c-3.3.1-6-1.6-8.8-2.8-10.9-4.8-21.1-10.8-32.2-15.1-9-3.4-18.3-4.9-27.7-2.4-10.3,2.8-17.8,9.3-21.6,19.2-2.6,6.8-2.1,14.2-1.3,21.4,1.2,9.7,5.1,18.6,9.4,27.3,7.1,14.5,15.9,28,24.6,41.6.5.8,33.1,47.7,33.2,48.7-3.6-5.7-68.4-73.5-84-93.9-13.2-17.2-15.3-38.7-10.8-60.2,2.6-12.4,8.4-23.2,17.7-32,1.9-1.8,2.8-3.8,3.4-6.3,3.7-16.2,12.9-28.5,26.6-37.7,3.9-2.7,3.5-2.5,4.6,1.8-2.2,2.4-5,4.5-6.6,7.3-2.2,3.8-4.4,7.5-6.3,11.5-2.9,6.3-3.1,12.8-3.3,19.3,0,.5-.2,1.1.4,1.3.5.2.9-.3,1.3-.6,6-4.6,12.8-5.8,20.2-4.8,3.1.4,6,1.4,9,2.2.3-1.2-.3-2-.6-2.9-1.6-5-4.4-9.5-6.3-14.4,3.3-.2,6.4.7,9.4,1.7.8.2,1.5.8,2.4.5.3.6.9.7,1.4,1,4.2,1.8,8.2,4,11.7,7.1,2.2,1.9,4.3,4.1,6.4,6.1,4.9,6.7,7.2,14.5,10,22.1,4,10.8,11.8,18.6,21.3,24.9,1.5,1,3,1.8,4.4,3.4-1.9,0-3.8,0-5.7,0-3.1,0-3.4.5-2.4,3.5.1.4.2.8.3,1.2h0ZM100.3,61.7c4.3,5.6,9.1,10.1,16.3,11.1,1.1.2,2.5,1.1,3.3.4.9-.8-.1-2.2-.4-3.3-1.9-6.8-6.8-10.6-13.1-9.8-2.1.2-4.1.8-6.1,1.7h0Z" fill="#f86b1c" stroke="#a0a0a0" stroke-miterlimit="10"/>
          <path d="M167.4,185.2c1.8-6.5,3.4-13.1,5.3-19.6,3.5-11.7,9.6-21.8,17.7-31,13-14.6,29-23.1,48.4-25.5,4.5-.6,9.1-.5,13.5.8.1.6-.1.8-.4,1-13.7,7.5-20.8,19.7-24,34.5-2.1,9.7-1.6,19.6-1.2,29.4.3,6.9.7,13.9-.4,20.8-7.7,5.1-13,12-14.9,21.5-.5-.3-.6-.6-.8-.9-4.4-8.9-8.9-17.8-10.6-27.7-1.4-8-1.2-16,1-23.9.7-2.6,2.8-4.7,2.9-7.5,0,0,.2,0,.2,0h-.2c-2.6,2.2-4.9,4.6-6.8,7.2-5.5,7.4-12.7,12.9-20.5,17.4-2.8,1.6-5.9,2.9-9.1,3.5h0Z" fill="#fcfcfb" stroke="#a0a0a0" stroke-miterlimit="10"/>
          <path d="M167.4,185.2c3.3-.6,6.4-1.9,9.1-3.5,7.8-4.6,15-10.1,20.5-17.4,2-2.6,4.3-5,6.8-7.1h0c-.1,2.8-2.2,4.8-2.9,7.4-2.1,7.9-2.4,15.9-1,23.9,1.7,9.9,6.2,18.8,10.6,27.7.1.3.3.6.8.9,1.9-9.5,7.2-16.4,14.9-21.6.1,5.1-1.1,9.9-2.3,14.8-3.9,16.2-12,30.1-23.5,42.1-1.1,1.2-1.9,1-3,.3-6.7-4.1-12.7-9.1-18.6-14.4-9.4-8.5-17.2-18.3-24.2-28.8-.6-.8-1.3-1.5-.2-2.5,6.1-5.8,9.6-13.2,12.4-21,.1-.3.4-.6.5-.9h0Z" fill="#f86b1c" stroke="#a0a0a0" stroke-miterlimit="10"/>
          <path d="M97,23.2c1.9,4.9,4.7,9.4,6.3,14.4.3.9.9,1.7.6,2.9-3-.8-5.9-1.8-9-2.2-7.4-1-14.2.2-20.2,4.8-.4.3-.8.8-1.3.6-.6-.2-.4-.9-.4-1.3.1-6.6.3-13,3.3-19.3,1.9-4,4.1-7.7,6.3-11.5,1.6-2.8,4.4-4.9,6.6-7.3,2.2,5.6,4.5,11.3,6.7,16.9.3.8.5,1.6,1.1,2.2h0Z" fill="#fcfcfb" stroke="#a0a0a0" stroke-miterlimit="10"/>
          <path d="M128.4,39.4c-2.1-2-4.2-4.2-6.4-6.1-3.5-3-7.4-5.3-11.7-7.1-.6-.2-1.1-.4-1.4-1,4.3-5.1,8.4-10.4,13.6-14.5,4.4-3.4,9.1-6.2,14.2-8.3.5-.2,1-.3,1.8.2-6.9,11.3-9.7,23.7-10.1,36.8h0Z" fill="#fcfcfb" stroke="#a0a0a0" stroke-miterlimit="10"/>
          <path d="M203.8,157.1h.2c0,0-.1,0-.2,0h0Z" fill="#f86b1c" stroke="#a0a0a0" stroke-miterlimit="10"/>
          <path d="M56.8,165.9c.2.7,0,1.3-.6,2.1-10.2,14.8-10.9,43.3,7.1,60.2,1,1,2.1,1.9,3.2,2.8-10.3-12.7-9-49.1,2-52.8-2-2.3-6.9-7.3-11.6-12.3h0Z" fill="#fff" stroke="#a0a0a0" stroke-miterlimit="10"/>
        </g>
      </g>
    </g>
  </g>
</svg>
