<?xml version="1.0" encoding="UTF-8"?>
<svg id="b" data-name="Layer_2" xmlns="http://www.w3.org/2000/svg" viewBox="0 0 372.8 372.8">
  <g id="c" data-name="Layer_1">
    <rect width="372.8" height="372.8" rx="25.52" ry="25.52" fill="#243037"/>
    <g>
      <path d="M157.27,332.9c-18.91-.54-40.54-6.49-59.17-20.38-21.59-16.11-34.45-37.72-37.09-64.95-1.65-16.94.59-33.24,8.17-48.54,5.38-10.85,13.16-19.92,22.24-27.89,1.53-1.35,2.05-.58,2.68.84,4.6,10.29,10.54,19.73,18.04,28.16,1.18,1.33,2.31,2.75,3.67,3.86,1.4,1.15,1.27,2.09.35,3.42-10.15,14.77-10.86,43.33,7.06,60.21,10.59,9.97,23.27,13.83,37.58,12.94,6.59-.41,12.91-2,18.84-4.93,1.53-.76,2.35-.49,3.3.9,7.38,10.82,15.41,21.09,25.15,29.93,2.9,2.63,5.88,5.16,9.07,7.37,2.15,1.49,1.29,2.2-.19,3.18-4.83,3.18-9.9,5.91-15.27,8.09-13.35,5.42-25.32,7.74-44.45,7.8Z" fill="#f86b1c"/>
      <path d="M216.29,133.82c1.78,2.21,3.01,5,6.47,5.67-4.29,5.35-10.01,6.71-16.13,7-4.37.2-8.58-.86-12.72-2.18-5.65-1.8-11.21-3.94-17.07-4.97-4.38-.77-8.78-.76-13.08.67-6.52,2.16-10.58,7.54-10.95,14.4-.46,8.62,2.41,16.41,6.28,23.8,10.54,20.15,22.83,39.24,35.62,58.01,8.41,12.33,16.63,24.8,26.25,36.25,8.48,10.09,17.67,19.4,28.97,26.39,14.62,9.04,30.32,12.84,47.44,9.9.32-.06.66,0,1.16,0-.56,1.61-1.93,2.2-3.09,2.92-10.24,6.34-21.56,8.41-33.38,7.96-16-.61-29.9-6.73-42.41-16.55-11.21-8.8-19.63-19.98-27.96-31.33-10.19-13.88-19.29-28.49-29.11-42.62-.87-1.25-1.84-2.43-2.76-3.64-.1-.98-.8-1.66-1.29-2.43-8.65-13.58-17.46-27.08-24.55-41.57-4.25-8.68-8.18-17.58-9.35-27.32-.86-7.18-1.38-14.62,1.26-21.42,3.83-9.86,11.36-16.41,21.62-19.17,9.4-2.52,18.65-1.08,27.67,2.36,11.12,4.24,21.38,10.31,32.25,15.06,2.84,1.24,5.56,2.93,8.84,2.81Z" fill="#fcfcfb"/>
      <path d="M216.29,133.82c-3.28.12-6-1.58-8.84-2.81-10.88-4.75-21.13-10.82-32.25-15.06-9.02-3.44-18.27-4.88-27.67-2.36-10.26,2.75-17.79,9.31-21.62,19.17-2.64,6.79-2.12,14.24-1.26,21.42,1.17,9.73,5.1,18.63,9.35,27.32,7.09,14.49,15.9,27.99,24.55,41.57.49.77,33.06,47.71,33.16,48.69-3.65-5.68-68.42-73.5-84.03-93.85-13.16-17.16-15.35-38.7-10.78-60.2,2.64-12.43,8.45-23.25,17.69-32.04,1.9-1.81,2.82-3.77,3.39-6.26,3.74-16.15,12.94-28.55,26.56-37.74,3.94-2.66,3.54-2.55,4.62,1.83-2.24,2.42-5,4.54-6.59,7.33-2.16,3.77-4.42,7.51-6.28,11.51-2.94,6.31-3.15,12.75-3.28,19.35,0,.47-.22,1.11.36,1.35.53.22.91-.26,1.31-.56,6.02-4.6,12.83-5.81,20.21-4.8,3.07.42,6,1.44,9.02,2.19.28-1.21-.32-2-.6-2.86-1.62-5.01-4.38-9.52-6.29-14.4,3.27-.2,6.35.73,9.42,1.65.8.24,1.54.75,2.43.46.32.56.88.73,1.44.96,4.24,1.76,8.2,4.03,11.68,7.05,2.22,1.93,4.28,4.06,6.41,6.1,4.89,6.66,7.18,14.46,10.03,22.07,4.03,10.76,11.77,18.63,21.27,24.86,1.46.96,2.97,1.85,4.35,3.36-1.89,0-3.78-.03-5.67,0-3.12.06-3.43.54-2.36,3.46.14.39.2.81.3,1.22ZM160.25,101.12c4.33,5.58,9.15,10.08,16.3,11.07,1.14.16,2.54,1.13,3.34.37.88-.83-.15-2.21-.45-3.3-1.87-6.83-6.84-10.56-13.1-9.84-2.09.24-4.13.76-6.08,1.7Z" fill="#f86b1c"/>
      <path d="M227.36,224.59c1.76-6.54,3.38-13.13,5.32-19.62,3.5-11.68,9.62-21.84,17.73-30.96,12.98-14.61,29.05-23.13,48.39-25.52,4.53-.56,9.09-.49,13.48.84.1.57-.1.79-.43.96-13.68,7.53-20.79,19.66-24.04,34.47-2.13,9.72-1.65,19.55-1.25,29.39.28,6.94.74,13.89-.4,20.8-7.74,5.14-12.98,12.03-14.91,21.55-.48-.26-.61-.58-.76-.89-4.41-8.9-8.87-17.82-10.6-27.7-1.41-8-1.16-16.03.98-23.93.7-2.6,2.77-4.66,2.92-7.48.08-.01.16-.03.23-.04l-.19.09c-2.56,2.1-4.85,4.5-6.82,7.13-5.53,7.37-12.66,12.87-20.5,17.43-2.78,1.62-5.86,2.94-9.13,3.49Z" fill="#fcfcfb"/>
      <path d="M227.36,224.59c3.28-.55,6.36-1.87,9.13-3.49,7.84-4.57,14.97-10.07,20.5-17.43,1.97-2.63,4.26-5.02,6.82-7.13l-.04-.05c-.14,2.82-2.21,4.88-2.91,7.48-2.14,7.9-2.39,15.93-.98,23.93,1.74,9.88,6.19,18.8,10.6,27.7.15.31.28.63.76.89,1.93-9.52,7.17-16.41,14.91-21.55.12,5.06-1.13,9.92-2.29,14.76-3.88,16.22-12.04,30.09-23.47,42.14-1.1,1.16-1.85,1.03-3.01.31-6.71-4.14-12.73-9.13-18.55-14.44-9.36-8.53-17.16-18.34-24.25-28.77-.57-.84-1.27-1.48-.18-2.52,6.12-5.82,9.65-13.18,12.41-21,.11-.31.36-.57.54-.85Z" fill="#f86b1c"/>
      <path d="M157.01,62.63c1.91,4.88,4.67,9.39,6.29,14.4.28.86.88,1.65.6,2.86-3.02-.76-5.94-1.77-9.02-2.19-7.37-1.01-14.18.19-20.21,4.8-.4.31-.78.79-1.31.56-.58-.25-.37-.89-.36-1.35.12-6.61.33-13.04,3.28-19.35,1.87-4,4.13-7.74,6.28-11.51,1.59-2.79,4.35-4.91,6.59-7.33,2.23,5.63,4.46,11.27,6.7,16.91.31.78.48,1.63,1.15,2.21Z" fill="#fcfcfb"/>
      <path d="M188.38,78.84c-2.13-2.04-4.18-4.17-6.41-6.1-3.47-3.01-7.43-5.29-11.68-7.05-.55-.23-1.12-.4-1.44-.96,4.27-5.11,8.35-10.43,13.65-14.53,4.35-3.36,9.09-6.18,14.19-8.3.47-.2.98-.26,1.76.17-6.92,11.28-9.7,23.71-10.08,36.77Z" fill="#fcfcfb"/>
      <path d="M263.82,196.54l.19-.09c-.08.02-.15.03-.23.04,0,0,.04.04.04.04Z" fill="#f86b1c"/>
      <path d="M116.8,205.29c.19.66-.07,1.32-.63,2.13-10.15,14.77-10.86,43.33,7.06,60.21,1.04.98,2.1,1.89,3.17,2.75-10.29-12.67-8.99-49.07,1.98-52.81-1.96-2.3-6.92-7.34-11.58-12.28Z" fill="#fff"/>
    </g>
  </g>
</svg>